<svg width="11" height="8" viewBox="0 0 11 8" fill="none" xmlns="http://www.w3.org/2000/svg">
<path d="M0.973267 3.36084C0.697124 3.36084 0.473267 3.5847 0.473267 3.86084C0.473267 4.13698 0.697124 4.36084 0.973267 4.36084L0.973267 3.36084ZM10.3268 4.21439C10.5221 4.01913 10.5221 3.70255 10.3268 3.50729L7.14484 0.325305C6.94958 0.130043 6.63299 0.130043 6.43773 0.325305C6.24247 0.520568 6.24247 0.83715 6.43773 1.03241L9.26616 3.86084L6.43773 6.68927C6.24247 6.88453 6.24247 7.20111 6.43773 7.39637C6.63299 7.59164 6.94958 7.59164 7.14484 7.39637L10.3268 4.21439ZM0.973267 4.36084L9.97327 4.36084L9.97327 3.36084L0.973267 3.36084L0.973267 4.36084Z" fill="white" fill-opacity="0.54"/>
</svg>
