<svg width="24" height="25" viewBox="0 0 24 25" fill="none" xmlns="http://www.w3.org/2000/svg">
<g clip-path="url(#clip0_1_199)">
<path d="M12.0813 24.1489C18.4326 24.1489 23.5813 18.7763 23.5813 12.1489C23.5813 5.52151 18.4326 0.148926 12.0813 0.148926C5.73005 0.148926 0.581329 5.52151 0.581329 12.1489C0.581329 18.7763 5.73005 24.1489 12.0813 24.1489Z" fill="#181D22"/>
<path d="M8.90953 10.8185L12.1292 7.45889L15.3505 10.8203L17.2239 8.86531L12.1292 3.54895L7.03607 8.86359L8.90953 10.8185ZM5.71317 10.2439L7.5866 12.1988L5.71307 14.1538L3.83966 12.1989L5.71317 10.2439ZM8.90953 13.5794L12.1292 16.9389L15.3504 13.5777L17.2249 15.5316L17.2239 15.5326L12.1292 20.8489L7.036 15.5343L7.03339 15.5316L8.90953 13.5794ZM20.4188 12.1991L18.5454 14.154L16.672 12.1991L18.5454 10.2442L20.4188 12.1991Z" fill="#F0B90B"/>
<path d="M13.9962 12.1479H13.9971L12.0814 10.1489L10.1647 12.1489L10.1673 12.1517L12.0814 14.1489L13.998 12.1489L13.9962 12.1479Z" fill="#F0B90B"/>
</g>
<defs>
<clipPath id="clip0_1_199">
<rect width="23" height="24" fill="white" transform="translate(0.414825 0.574463)"/>
</clipPath>
</defs>
</svg>
