<svg width="76" height="46" viewBox="0 0 76 46" fill="none" xmlns="http://www.w3.org/2000/svg">
<path d="M1.25159 23.4143C1.25159 14.3016 8.63889 6.91431 17.7516 6.91431H58.7516C67.8643 6.91431 75.2516 14.3016 75.2516 23.4143C75.2516 32.527 67.8643 39.9143 58.7516 39.9143H17.7516C8.63889 39.9143 1.25159 32.527 1.25159 23.4143Z" stroke="url(#paint0_linear_1_167)"/>
<path d="M38.0316 31.5785C33.0636 31.5785 30.3266 28.4505 30.3266 23.6435C30.3266 18.8595 33.0636 15.7085 38.0316 15.7085C42.9766 15.7085 45.7366 18.8595 45.7366 23.6435C45.7366 28.4505 42.9766 31.5785 38.0316 31.5785ZM38.0316 28.2205C40.9526 28.2205 42.0336 26.9555 42.0336 23.6435C42.0336 20.3315 40.9526 19.0665 38.0316 19.0665C35.0876 19.0665 34.0296 20.3315 34.0296 23.6435C34.0296 26.9555 35.0876 28.2205 38.0316 28.2205Z" fill="white"/>
<defs>
<linearGradient id="paint0_linear_1_167" x1="38.2516" y1="6.41431" x2="38.2516" y2="52.1018" gradientUnits="userSpaceOnUse">
<stop stop-color="#5235E8"/>
<stop offset="1" stop-color="#5235E8"/>
</linearGradient>
</defs>
</svg>
