<svg width="17" height="17" viewBox="0 0 17 17" fill="none" xmlns="http://www.w3.org/2000/svg">
<g clip-path="url(#clip0_1_207)">
<path d="M7.89801 11.652H9.29925V7.44829H7.89801V11.652ZM8.59863 1.1427C4.7277 1.1427 1.59242 4.27798 1.59242 8.14891C1.59242 12.0198 4.7277 15.1551 8.59863 15.1551C12.4696 15.1551 15.6048 12.0198 15.6048 8.14891C15.6048 4.27798 12.4696 1.1427 8.59863 1.1427ZM8.59863 13.7539C5.50889 13.7539 2.99366 11.2387 2.99366 8.14891C2.99366 5.05917 5.50889 2.54394 8.59863 2.54394C11.6884 2.54394 14.2036 5.05917 14.2036 8.14891C14.2036 11.2387 11.6884 13.7539 8.59863 13.7539ZM7.89801 6.04705H9.29925V4.64581H7.89801V6.04705Z" fill="#5235E8"/>
</g>
<defs>
<clipPath id="clip0_1_207">
<rect width="16.8149" height="16.8149" fill="white" transform="translate(0.0247955 0.166992)"/>
</clipPath>
</defs>
</svg>
