<svg width="40" height="40" viewBox="0 0 40 40" fill="none" xmlns="http://www.w3.org/2000/svg">
<path d="M19.8349 6.79579C24.0591 6.79579 24.5582 6.79579 26.226 6.89318C27.2281 6.90648 28.2204 7.09177 29.1598 7.44098C29.8434 7.7039 30.4644 8.10734 30.9823 8.6253C31.5003 9.14325 31.9037 9.76418 32.1666 10.4478C32.5158 11.3872 32.7011 12.3795 32.7144 13.3816C32.7875 15.0494 32.8118 15.5485 32.8118 19.7727C32.8118 23.9969 32.8118 24.4959 32.7144 26.1637C32.7011 27.1658 32.5158 28.1581 32.1666 29.0975C31.9037 29.7812 31.5003 30.4021 30.9823 30.9201C30.4644 31.438 29.8434 31.8414 29.1598 32.1044C28.2204 32.4536 27.2281 32.6389 26.226 32.6522C24.5582 32.7252 24.0591 32.7495 19.8349 32.7495C15.6107 32.7495 15.1117 32.7495 13.4439 32.6522C12.4418 32.6389 11.4495 32.4536 10.5101 32.1044C9.82643 31.8414 9.20551 31.438 8.68755 30.9201C8.1696 30.4021 7.76616 29.7812 7.50324 29.0975C7.15403 28.1581 6.96873 27.1658 6.95544 26.1637C6.88239 24.4959 6.85805 23.9969 6.85805 19.7727C6.85805 15.5485 6.85805 15.0494 6.95544 13.3816C6.96873 12.3795 7.15403 11.3872 7.50324 10.4478C7.76483 9.76535 8.16644 9.14516 8.68219 8.62728C9.19794 8.10947 9.81651 7.7053 10.4979 7.44098C11.4373 7.09177 12.4296 6.90648 13.4317 6.89318C15.0995 6.82014 15.5985 6.79579 19.8227 6.79579H19.8349ZM19.8349 3.9472C15.5377 3.9472 14.9656 3.9472 13.31 4.04459C11.9956 4.06859 10.6948 4.31556 9.4632 4.775C8.41266 5.18177 7.45866 5.80331 6.66211 6.59986C5.86556 7.39641 5.24403 8.35041 4.83725 9.40094C4.37782 10.6326 4.13085 11.9333 4.10685 13.2477C4.00946 14.9033 4.00946 15.4754 4.00946 19.7727C4.00946 24.0699 4.00946 24.642 4.10685 26.2976C4.13085 27.612 4.37782 28.9128 4.83725 30.1445C5.24403 31.1949 5.86556 32.149 6.66211 32.9455C7.45866 33.742 8.41266 34.3636 9.4632 34.7703C10.6948 35.2298 11.9956 35.4768 13.31 35.5008C14.9656 35.5982 15.5377 35.5981 19.8349 35.5981C24.1322 35.5981 24.7043 35.5982 26.3599 35.5008C27.6743 35.4768 28.975 35.2298 30.2067 34.7703C31.2572 34.3636 32.2112 33.742 33.0077 32.9455C33.8043 32.149 34.4259 31.1949 34.8326 30.1445C35.2921 28.9128 35.539 27.612 35.563 26.2976C35.6604 24.642 35.6604 24.0699 35.6604 19.7727C35.6604 15.4754 35.6604 14.9033 35.563 13.2477C35.539 11.9333 35.2921 10.6326 34.8326 9.40094C34.4259 8.35041 33.8043 7.39641 33.0077 6.59986C32.2112 5.80331 31.2572 5.18177 30.2067 4.775C28.975 4.31556 27.6743 4.06859 26.3599 4.04459C24.7043 3.9472 24.1322 3.9472 19.8349 3.9472Z" fill="white"/>
<path d="M19.836 11.6407C18.2277 11.6407 16.6554 12.1177 15.3182 13.0112C13.9808 13.9048 12.9386 15.1748 12.3231 16.6607C11.7076 18.1466 11.5466 19.7817 11.8604 21.3591C12.1741 22.9365 12.9486 24.3854 14.0859 25.5227C15.2231 26.66 16.6721 27.4345 18.2495 27.7482C19.8269 28.062 21.462 27.9009 22.9479 27.2855C24.4338 26.67 25.7038 25.6277 26.5973 24.2905C27.4909 22.9532 27.9678 21.381 27.9678 19.7726C27.9678 17.6159 27.1111 15.5476 25.586 14.0225C24.0611 12.4975 21.9926 11.6407 19.836 11.6407ZM19.836 25.0316C18.7929 25.0316 17.7733 24.7221 16.9062 24.1424C16.0391 23.5626 15.3635 22.7387 14.9649 21.7748C14.5663 20.8109 14.4627 19.7504 14.667 18.7276C14.8714 17.7048 15.3747 16.7656 16.1131 16.0289C16.8514 15.2922 17.7918 14.7912 18.8151 14.5891C19.8384 14.3871 20.8986 14.4933 21.8616 14.8941C22.8245 15.2949 23.6469 15.9724 24.2247 16.8409C24.8024 17.7093 25.1095 18.7296 25.107 19.7726C25.107 21.1706 24.5517 22.5113 23.5632 23.4998C22.5747 24.4884 21.234 25.0437 19.836 25.0437" fill="white"/>
<path d="M30.1819 11.3243C30.1819 11.6999 30.0705 12.0671 29.8618 12.3794C29.6532 12.6917 29.3566 12.935 29.0096 13.0788C28.6625 13.2226 28.2807 13.2601 27.9123 13.1868C27.5439 13.1136 27.2056 12.9328 26.94 12.6671C26.6744 12.4016 26.4936 12.0632 26.4203 11.6948C26.347 11.3264 26.3846 10.9446 26.5283 10.5976C26.6721 10.2505 26.9155 9.95395 27.2278 9.74528C27.54 9.53661 27.9073 9.42526 28.2828 9.42526C28.7865 9.42526 29.2695 9.62533 29.6257 9.98144C29.9818 10.3376 30.1819 10.8207 30.1819 11.3243Z" fill="white"/>
</svg>
