<svg width="19" height="22" viewBox="0 0 19 22" fill="none" xmlns="http://www.w3.org/2000/svg">
<path d="M0.75 12.8357C0.75 17.8357 4.77944 21.8357 9.75 21.8357C14.7206 21.8357 18.75 17.8357 18.75 12.8357C18.75 5.78804 13.2312 1.8064 10.8368 0.41058C10.5355 0.23492 10.3848 0.14709 10.2183 0.16711C10.0848 0.18315 9.9364 0.2744 9.8619 0.38622C9.7688 0.52581 9.7795 0.70518 9.8009 1.06393C9.9971 4.35644 10.5352 10.8357 7.17857 10.8357C5.02186 10.8357 4.67403 9.11608 4.61793 6.39813C4.60825 5.92933 4.60342 5.69493 4.47461 5.55558C4.37106 5.44356 4.1874 5.37837 4.03639 5.40004C3.84856 5.42701 3.71098 5.58943 3.43582 5.91429C2.30088 7.25419 0.75 9.66518 0.75 12.8357Z" fill="white"/>
</svg>
