<svg width="40" height="40" viewBox="0 0 40 40" fill="none" xmlns="http://www.w3.org/2000/svg">
<path d="M7.70156 15.9956H13.1492V33.7004H7.70156V15.9956ZM10.4254 7.24045C12.1764 7.24045 13.5383 8.60233 13.5383 10.3534C13.5383 12.1044 12.1764 13.4663 10.4254 13.4663C8.67432 13.6609 7.31244 12.1044 7.31244 10.3534C7.31244 8.60233 8.67432 7.24045 10.4254 7.24045Z" fill="white"/>
<path d="M16.6506 15.9955H21.9037V18.3302C22.8765 16.9683 24.6275 15.6064 27.3514 15.6064C32.9936 15.6064 33.9664 19.303 33.9664 23.9724V33.7004H28.5187V25.1398C28.5187 22.9996 28.5187 20.4704 25.6003 20.4704C22.682 20.4704 22.2928 22.6105 22.2928 24.9452V33.7004H16.6506V15.9955Z" fill="white"/>
</svg>
