<svg width="30" height="35" viewBox="0 0 30 35" fill="none" xmlns="http://www.w3.org/2000/svg">
<mask id="mask0_1_350" style="mask-type:luminance" maskUnits="userSpaceOnUse" x="0" y="0" width="31" height="35">
<path d="M30.0081 0.720703H0.75V34.9082H30.0081V0.720703Z" fill="white"/>
</mask>
<g mask="url(#mask0_1_350)">
<path d="M22.7165 21.83L21.3736 21.0747L18.4063 26.418L11.3686 28.2301C8.24895 29.0318 5.06009 27.1363 4.26173 24.0036L0.934419 10.9626C0.131436 7.82976 2.01891 4.62744 5.13855 3.8257L17.1925 0.720703L14.2575 6.027L6.22765 8.08928C5.45235 8.2932 4.98164 9.0903 5.18008 9.86887L8.50738 22.9099C8.71043 23.6884 9.5042 24.1611 10.2795 23.9619L15.4943 22.6226L17.5479 18.9289L16.2049 18.1736L21.2813 16.7323L22.7165 21.83Z" fill="#5235E8"/>
<path d="M17.1929 0.720703L14.2578 6.027L6.228 8.08928C5.45271 8.29319 4.98199 9.0903 5.18043 9.86886L8.50774 22.9099C8.71079 23.6884 9.50454 24.1611 10.2798 23.9618L15.4947 22.6226L17.5483 18.9289L16.2053 18.1736L21.2816 16.7323L17.2806 24.0082L10.4367 25.7599C8.80308 26.1771 7.1325 25.2039 6.68487 23.5726L3.01145 10.1655C2.56381 8.52954 3.50524 6.83338 5.12505 6.35604L13.7548 3.80716L17.1929 0.720703Z" fill="url(#paint0_linear_1_350)"/>
<path d="M25.6147 31.803L13.5607 34.908L16.5004 29.6064L24.5256 27.5394C25.3009 27.3402 25.7716 26.5431 25.5731 25.7599L22.2458 12.7189C22.0475 11.9404 21.2491 11.4677 20.4738 11.6669L15.259 13.0109L13.21 16.7044L14.5483 17.4552L9.47197 18.8965L8.03674 13.7987L9.37966 14.5541L12.3516 9.21071L19.3847 7.39869C22.5043 6.59696 25.6931 8.49239 26.4915 11.6252L29.8235 24.6662C30.6218 27.799 28.7344 31.0013 25.6147 31.803Z" fill="#2A1D6B"/>
<path d="M13.5747 34.9082L16.5097 29.6019L24.5396 27.5397C25.3149 27.3358 25.7855 26.5386 25.5871 25.7601L22.2598 12.7191C22.0568 11.9405 21.263 11.4678 20.4877 11.6671L15.2729 13.0063L13.2193 16.7L14.5622 17.4553L9.4859 18.8966L13.487 11.6207L20.3308 9.86893C21.9645 9.45185 23.635 10.4251 24.0827 12.0564L27.7561 25.4634C28.2037 27.0994 27.2623 28.7955 25.6425 29.2729L17.0128 31.8217L13.5747 34.9036V34.9082Z" fill="url(#paint1_linear_1_350)"/>
</g>
<defs>
<linearGradient id="paint0_linear_1_350" x1="2.90069" y1="13.2889" x2="21.2816" y2="13.2889" gradientUnits="userSpaceOnUse">
<stop stop-color="#8C8FF5"/>
<stop offset="1" stop-color="white" stop-opacity="0"/>
</linearGradient>
<linearGradient id="paint1_linear_1_350" x1="9.48652" y1="22.3408" x2="27.8675" y2="22.3408" gradientUnits="userSpaceOnUse">
<stop stop-color="#8C8FF5"/>
<stop offset="1" stop-color="white" stop-opacity="0"/>
</linearGradient>
</defs>
</svg>
