<svg width="39" height="40" viewBox="0 0 39 40" fill="none" xmlns="http://www.w3.org/2000/svg">
<path d="M30.3071 14.0587C30.3243 14.3078 30.3243 14.5571 30.3243 14.8063C30.3243 22.4071 24.7162 31.1652 14.4663 31.1652C11.3085 31.1652 8.37503 30.2217 5.90741 28.5841C6.35608 28.6374 6.78742 28.6553 7.25336 28.6553C9.85892 28.6553 12.2575 27.7474 14.1729 26.1988C11.7226 26.1454 9.66914 24.4899 8.96163 22.2114C9.30678 22.2648 9.65187 22.3004 10.0143 22.3004C10.5147 22.3004 11.0151 22.2291 11.4811 22.1046C8.92716 21.5705 7.01173 19.2564 7.01173 16.4617V16.3906C7.75373 16.8178 8.61655 17.0848 9.53103 17.1204C8.0298 16.0879 7.04626 14.3256 7.04626 12.3319C7.04626 11.2639 7.3223 10.2849 7.80547 9.43043C10.5492 12.9193 14.6733 15.1978 19.2978 15.4471C19.2116 15.0199 19.1598 14.5748 19.1598 14.1299C19.1598 10.9613 21.6446 8.38019 24.7334 8.38019C26.3381 8.38019 27.7876 9.0744 28.8057 10.1959C30.0654 9.94669 31.2733 9.466 32.3432 8.80744C31.929 10.1425 31.049 11.264 29.8929 11.976C31.0145 11.8514 32.1016 11.5309 33.1024 11.0859C32.3433 12.2251 31.3942 13.2397 30.3071 14.0587Z" fill="white"/>
</svg>
